PathFileType	4	(X/Y/Z)	Patient4_TMGait_0pt4_02_right_19.trc.trc
DataRate	CameraRate	NumFrames	NumMarkers	Units	OrigDataRate	OrigDataStartFrame	OrigNumFrames
74.468085106383	74.468085106383	5	33	mm	74.468085106383	1	       141
Frame#	Time	Sacral			L.Shoulder			Chest			R.Shoulder			Neck			R.ASIS			L.ASIS			R.Thigh.Superior			R.Thigh.Lateral			R.Thigh.Inferior			R.Patella			L.Thigh.Superior			L.Thigh.Lateral			L.Thigh.Inferior			L.Patella			L.Shank.Superior			L.Shank.Lateral			L.Shank.Inferior			R.Shank.Superior			R.Shank.Lateral			R.Shank.Inferior			R.Heel			R.Midfoot.Superior			R.Midfoot.Lateral			R.Toe			L.Heel			L.Midfoot.Lateral			L.Midfoot.Superior			L.Toe			L.Elbow			L.Wrist			R.Elbow			R.Wrist			
		X1	Y1	Z1	X2	Y2	Z2	X3	Y3	Z3	X4	Y4	Z4	X5	Y5	Z5	X6	Y6	Z6	X7	Y7	Z7	X8	Y8	Z8	X9	Y9	Z9	X10	Y10	Z10	X11	Y11	Z11	X12	Y12	Z12	X13	Y13	Z13	X14	Y14	Z14	X15	Y15	Z15	X16	Y16	Z16	X17	Y17	Z17	X18	Y18	Z18	X19	Y19	Z19	X20	Y20	Z20	X21	Y21	Z21	X22	Y22	Z22	X23	Y23	Z23	X24	Y24	Z24	X25	Y25	Z25	X26	Y26	Z26	X27	Y27	Z27	X28	Y28	Z28	X29	Y29	Z29	X30	Y30	Z30	X31	Y31	Z31	X32	Y32	Z32	X33	Y33	Z33	

1	24.800000000000	859.424063354427	1008.680175229989	431.225219974091	1061.065410757925	1425.720604018389	229.891293633163	1157.319595694666	1361.959128347181	396.441367856964	1071.997958454715	1444.651700748956	565.323978840680	1045.402368547536	1493.697403045483	379.806941935542	1088.714724475457	945.951537589399	546.783437750843	1074.017112807450	960.303821878554	273.379548739956	1169.239337641300	773.098840326986	524.347726241443	1126.074462659765	656.125726131973	605.712531038955	1218.012638983651	613.523058777489	531.506056692206	1234.918124738231	502.445797211727	558.908750121260	1124.722204128725	751.605781228416	297.229459348916	1036.234405980601	634.203844762417	245.155418755991	1124.683203940247	558.513461698355	304.731598280032	1125.988101453631	488.393284725780	315.185026467514	1095.641496288010	416.101279777818	309.198871133331	1000.900644816689	304.526098275528	260.539729968613	1047.982329616072	192.163260752502	332.573195913105	1157.861911216245	428.152771132358	569.175201222771	1035.027861940026	395.216031513793	631.666727261584	1017.739725985383	283.699517251814	588.660550771241	817.195300508245	234.908453758825	566.423077500141	978.911772953375	156.620300709137	603.358878794868	870.011087649550	166.742217761090	637.288336971603	1031.264168044601	36.829544260838	625.996776640613	916.535914017646	39.417024191732	378.890307129227	988.983001503208	35.404274245225	296.911002309891	1073.025129968517	96.302786521523	322.285693013060	1201.368103505444	41.933784035871	291.926238994903	1022.833126717227	1083.230876902985	93.627675260289	1176.635072814284	869.614868264533	77.754310053418	993.882944539841	1114.289099768454	707.511480158855	1023.102394678391	857.798591959246	744.594631888114	
2	24.813428571429	858.593181546419	1009.674808266964	429.468071042424	1062.725509501559	1426.305928884408	229.051363670719	1156.923168099265	1362.854434653332	396.789470158157	1069.757468906664	1446.003095329308	564.416862107996	1045.017105244075	1494.544228190062	378.851256339182	1086.900322474103	947.279796038639	547.084125239756	1074.321629153128	960.927099013020	273.677217333095	1169.146888598614	776.231627208590	524.682301975665	1127.502245420821	658.776225901880	606.143148555896	1219.561056026612	617.051260127133	531.603426770872	1238.322186304722	507.055296874031	559.242168859049	1122.469794316747	751.061625255865	297.937097204215	1032.528724357841	634.745009111319	244.980772547102	1119.599123967073	557.925588309629	305.076336521877	1119.988155726846	488.101785067887	315.549372661440	1089.780680735803	416.143737391529	309.245895559108	995.093517003589	304.615297714282	260.441832754296	1042.187268243030	192.262662513414	332.611947828999	1164.011412889310	430.796639191486	569.456173701741	1043.148494796821	392.386510302354	631.948900608864	1030.901924351679	280.474913140376	588.861778873834	833.266418463896	222.293718518812	566.464879870273	997.851797098209	151.927930319971	603.123446292409	889.092821753198	156.941243860208	637.417026728477	1056.060892666969	35.414099093339	626.267287372682	910.769739599485	39.402495217822	378.849563561031	983.230487483651	35.382433834101	296.863942893757	1067.277689926533	96.309970746108	322.239987008209	1195.604230306742	42.014928627533	291.900018555147	1029.354834788209	1084.083454955403	91.472396545197	1186.870556200079	873.227690690159	77.546492446377	985.492529348929	1118.363981706746	707.701334518763	1011.566746685939	862.028252137717	747.376190290663	
3	24.826857142857	857.773741472452	1010.642136913513	427.750158306384	1064.365050263050	1426.845818763070	228.244531187619	1156.527237345402	1363.719138669971	397.159454755868	1067.530326846865	1447.322487687989	563.534909616191	1044.627577314637	1495.355294090376	377.923032296442	1085.094860213820	948.572020701020	547.426453554256	1074.633874530921	961.518814178809	274.017487416808	1168.984815355216	779.238054917337	525.039248195059	1128.783626331177	661.299624341055	606.568397798603	1220.899291791899	620.400399796812	531.693307887872	1241.491047906360	511.549767015754	559.582879201228	1120.204535661866	750.495782576040	298.744080205003	1028.873196744249	635.263435809787	244.834987076660	1114.535991132786	557.337974706524	305.474620915825	1114.001597120228	487.807401308619	315.950985067668	1083.949808419776	416.182435542708	309.321665467660	989.332621868606	304.694586630198	260.358660611006	1036.426526099870	192.354698549764	332.669234027489	1170.002553528385	433.318322404702	569.774127479638	1051.243812695839	389.364261580705	632.319655158356	1044.135436118108	277.093607130373	589.157229201844	849.570834541563	209.395087385443	566.683686986765	1016.990376360885	147.134123014713	603.020719342599	908.450410430783	146.969646616324	637.725171355038	1081.100367100974	34.024261380717	626.660010897321	905.036610360980	39.383776673288	378.811662293772	977.508476740471	35.359915807906	296.819739854708	1061.557205094075	96.315436712993	322.201723058027	1189.871340648978	42.098359015059	291.877037860646	1035.836719111062	1084.897989835080	89.383119479305	1197.059275868505	876.819304400130	77.418103674538	977.227747537259	1122.349703380058	707.833855070948	1000.308092554888	866.170429498425	750.014296662967	
4	24.840285714286	856.986415570437	1011.548437690427	426.123499421314	1065.957013131280	1427.296939160067	227.516330485008	1156.138687406025	1364.516162938311	397.576875151839	1065.350533225947	1448.566448027476	562.719179044473	1044.236867771848	1496.091912889983	377.066215132504	1083.323818429644	949.778268744676	547.849858975308	1074.967424519800	962.050376503899	274.435069496450	1168.653693758234	781.943895108937	525.452053088724	1129.718538349308	663.549108735866	607.007644055073	1221.780857954758	623.356112361394	531.795444239201	1244.134610212695	515.774179988921	559.935839503012	1117.933296029731	749.891441343413	299.712323296190	1025.324189341309	635.735813914753	244.742674028711	1109.537562687071	556.749920961092	305.959529440192	1108.073000861174	487.506603642190	316.411845555753	1078.201223031815	416.209890259478	309.447021706793	983.675930118550	304.755937059694	260.302042247675	1030.744438870949	192.431447171618	332.756407975602	1175.625039612254	435.607702864517	570.160231313939	1059.265244002147	386.019354339735	632.858143910359	1057.455507981992	273.506781041251	589.614801187859	866.342172645472	196.103382527141	567.217069870324	1036.463629996164	142.300796435745	603.157482069099	928.322173142711	136.829476416941	638.336972267800	1106.506513481889	32.851490661141	627.236214504319	899.373618366343	39.358165337474	378.779213050421	971.853606190108	35.336052060611	296.780911917062	1055.899600567488	96.317426251538	322.176638249391	1184.206614689725	42.183793526934	291.859539923469	1042.217115505683	1085.632522090671	87.450837961283	1207.126953875083	880.370532764023	77.454342843148	969.261359146886	1126.125007765433	707.856670106400	989.645902406315	870.101903369529	752.365521816468	
5	24.853714285714	856.249865210765	1012.364636839745	424.631078532184	1067.481059495203	1427.622959661839	226.908498039246	1155.764629783035	1365.212529269747	398.067289367919	1063.247327052670	1449.695709043022	562.008707241338	1043.849530834427	1496.720969438534	376.321657671815	1081.608804812781	950.851845968810	548.389053795373	1075.337334763794	962.500596647314	274.958091492965	1168.054532300595	784.187525098406	525.953463247194	1130.109800018742	665.394325639942	607.485776258214	1221.976778681648	625.726359196708	531.940294656896	1245.983272325741	519.591114011172	560.303522934474	1115.661075690985	749.234900418770	300.881722993620	1021.919196337143	636.144479595232	244.720098623460	1104.633769073273	556.157279235374	306.549055303851	1102.234756716244	487.194757596193	316.942119771444	1072.569998450333	416.217572803071	309.634288813257	978.157146338456	304.793267135580	260.278797628557	1025.162134605605	192.485463460318	332.878812908990	1180.697872941775	437.579408852513	570.635019087723	1067.199589737514	382.248722058787	633.633162916538	1070.907984602458	269.703702469571	590.283441833229	883.857632116229	182.349671061101	568.172235588365	1056.441906387548	137.537506720600	603.615946559705	948.982638377303	126.564756383357	639.343208621637	1132.437666803955	32.137083837256	628.031040676999	893.793671082191	39.323772851074	378.753678718330	966.277793704200	35.310310071958	296.748939823873	1050.316604049061	96.314366644336	322.168647922293	1178.622454586468	42.269126780610	291.849216440998	1048.459066753917	1086.250577186950	85.756539852458	1217.038703607532	883.879713758030	77.729818060501	961.730848273426	1129.583322290667	707.726349668098	979.827081109856	873.713692745113	754.318952996953	
